#!OML:ASF I:\Actors\actors\Patient Classification 1\Patient 1\Session 1\Subject1.ASF
:FULLY-SPECIFIED
:DEGREES
739
root 0.683806 17.5021 9.25986 9.51706 -8.95461 -9.93777
lowerback -0.29673 0.196141 7.61725
upperback -9.01416 0.630949 0.340071
thorax -9.35745 -0.290574 -3.93967
lowerneck -7.32735 9.22314 12.9073
upperneck 23.5118 15.7003 -18.5004
head 11.3966 6.64991 -6.91599
rclavicle 1.98785e-015 2.3059e-014
rhumerus 77.0255 32.4732 -7.53423
rradius 102.115
rwrist 27.2142
rhand -23.5185 -42.9885
rfingers 7.12502
rthumb 2.94237 -72.9479
lclavicle 1.98785e-015 2.3059e-014
lhumerus 2.35559 24.6207 78.1419
lradius 107.772
lwrist 104.959
lhand -31.4577 -5.09006
lfingers 7.12502
lthumb -4.72507 24.8372
rfemur -4.59351 23.232 25.3457
rtibia 3.42244
rfoot -11.7282 -19.1919
rtoes -4.16712
lfemur 10.8956 -45.1716 -14.9008
ltibia -4.89628
lfoot -37.0726 56.2757
ltoes 20.3642
740
root 0.684046 17.5016 9.26753 9.48203 -8.89379 -9.80568
lowerback -0.313459 0.100156 7.54683
upperback -9.10051 0.509489 0.465502
thorax -9.45974 -0.344905 -3.75618
lowerneck -7.10483 9.33985 13.0529
upperneck 22.9731 15.8702 -18.8511
head 11.2318 6.73908 -7.03363
rclavicle -1.19271e-015 -1.59028e-015
rhumerus 76.4567 32.4477 -7.47878
rradius 102.032
rwrist 27.0241
rhand -23.9056 -42.7669
rfingers 7.12502
rthumb 2.56857 -72.7312
lclavicle -1.19271e-015 -1.59028e-015
lhumerus 2.06491 24.8987 77.9626
lradius 107.884
lwrist 105.073
lhand -31.5096 -5.51758
lfingers 7.12502
lthumb -4.77523 24.4086
rfemur -4.52203 23.2065 25.2124
rtibia 3.37666
rfoot -11.7294 -19.2593
rtoes -4.16067
lfemur 10.9051 -45.1376 -15.0509
ltibia -4.89643
lfoot -36.9667 56.1828
ltoes 20.3909
741
root 0.683816 17.5018 9.2751 9.47628 -8.83179 -9.63413
lowerback -0.362857 0.0407294 7.43972
upperback -9.17788 0.430382 0.565455
thorax -9.52559 -0.374796 -3.5825
lowerneck -7.22989 9.5006 12.9825
upperneck 22.7618 16.0672 -18.83
head 11.2093 6.82423 -6.96234
rclavicle -5.36719e-015 8.74653e-015
rhumerus 75.802 32.4423 -7.46565
rradius 102.001
rwrist 27.1188
rhand -24.2157 -42.5083
rfingers 7.12502
rthumb 2.26907 -72.476
lclavicle -5.36719e-015 8.74653e-015
lhumerus 1.93075 25.0612 77.896
lradius 107.98
lwrist 105.047
lhand -31.6579 -5.65088
lfingers 7.12502
lthumb -4.91839 24.272
rfemur -4.50503 23.1443 25.0124
rtibia 3.33536
rfoot -11.7071 -19.3336
rtoes -4.55677
lfemur 10.8315 -45.0849 -15.1975
ltibia -4.86315
lfoot -36.6201 56.1329
ltoes 20.1549
742
root 0.683411 17.5021 9.28226 9.46991 -8.76272 -9.49965
lowerback -0.425101 0.0137878 7.37018
upperback -9.2498 0.393828 0.640612
thorax -9.57286 -0.386995 -3.45966
lowerneck -7.43382 9.62654 12.9597
upperneck 22.5848 16.2123 -18.8365
head 11.2126 6.88198 -6.91758
rclavicle 1.43125e-014 -1.66979e-014
rhumerus 75.0257 32.4933 -7.47153
rradius 101.939
rwrist 27.1286
rhand -24.575 -42.4605
rfingers 7.12502
rthumb 1.92208 -72.4316
lclavicle 1.43125e-014 -1.66979e-014
lhumerus 1.86812 25.1284 77.8839
lradius 108.027
lwrist 105.123
lhand -31.5681 -5.31846
lfingers 7.12502
lthumb -4.83168 24.6064
rfemur -4.49475 23.0752 24.8573
rtibia 3.33117
rfoot -11.8219 -19.3549
rtoes -4.70014
lfemur 10.7642 -45.0241 -15.3107
ltibia -4.82317
lfoot -36.2454 56.1061
ltoes 19.7313
743
root 0.682857 17.5027 9.28761 9.45488 -8.66499 -9.39508
lowerback -0.46756 -0.0219209 7.33506
upperback -9.30991 0.347117 0.696813
thorax -9.62045 -0.4075 -3.37568
lowerneck -7.48396 9.72136 13.2159
upperneck 22.2095 16.3157 -19.1142
head 11.1578 6.93689 -7.03286
rclavicle 3.29983e-014 -1.82882e-014
rhumerus 74.2305 32.5441 -7.55783
rradius 101.868
rwrist 27.2008
rhand -24.703 -42.3996
rfingers 7.12502
rthumb 1.79838 -72.3718
lclavicle 3.29983e-014 -1.82882e-014
lhumerus 1.84411 25.104 77.8301
lradius 108.004
lwrist 105.237
lhand -31.4839 -5.09462
lfingers 7.12502
lthumb -4.75036 24.8321
rfemur -4.47517 23.0662 24.7501
rtibia 3.34671
rfoot -11.955 -19.4189
rtoes -4.44611
lfemur 10.7032 -44.9751 -15.3772
ltibia -4.80277
lfoot -35.9837 56.0321
ltoes 19.5627
744
root 0.681905 17.5033 9.29276 9.45407 -8.54703 -9.3047
lowerback -0.492742 -0.0252535 7.31868
upperback -9.37082 0.344451 0.72184
thorax -9.67442 -0.409564 -3.33905
lowerneck -7.5516 9.80784 13.4775
upperneck 21.8232 16.3556 -19.2281
head 11.0727 6.97718 -7.0932
rclavicle -1.98785e-015 2.22639e-014
rhumerus 73.3843 32.563 -7.71373
rradius 101.802
rwrist 27.2705
rhand -24.631 -42.2522
rfingers 7.12502
rthumb 1.86797 -72.2238
lclavicle -1.98785e-015 2.22639e-014
lhumerus 1.87633 24.873 77.8183
lradius 107.978
lwrist 105.222
lhand -31.6702 -5.12054
lfingers 7.12502
lthumb -4.93027 24.8021
rfemur -4.43648 23.1104 24.6638
rtibia 3.31271
rfoot -12.0063 -19.5716
rtoes -4.27033
lfemur 10.6862 -45.1186 -15.4837
ltibia -4.77092
lfoot -36.008 56.0507
ltoes 19.6575
745
root 0.680828 17.5024 9.29748 9.47517 -8.44439 -9.34973
lowerback -0.481245 -0.0221893 7.43346
upperback -9.444 0.365739 0.811769
thorax -9.76467 -0.408962 -3.30765
lowerneck -7.72463 9.92158 13.4841
upperneck 21.5099 16.4203 -19.1193
head 10.9931 7.01726 -7.01602
rclavicle 3.13086e-014 2.54444e-014
rhumerus 72.6376 32.6453 -7.78182
rradius 101.728
rwrist 27.1851
rhand -24.565 -42.263
rfingers 7.12502
rthumb 1.93172 -72.234
lclavicle 3.13086e-014 2.54444e-014
lhumerus 1.85897 24.6357 77.8096
lradius 108.026
lwrist 105.112
lhand -31.8221 -5.00403
lfingers 7.12502
lthumb -5.077 24.9151
rfemur -4.39061 23.1764 24.7377
rtibia 3.27276
rfoot -12.0571 -19.7166
rtoes -4.08954
lfemur 10.7188 -45.3796 -15.4867
ltibia -4.7247
lfoot -36.2617 56.161
ltoes 19.7265
